<svg xmlns="http://www.w3.org/2000/svg" xml:space="preserve" image-rendering="optimizeQuality" shape-rendering="geometricPrecision" text-rendering="geometricPrecision" viewBox="0 0 100 140"><path d="m91.6 122.8-58.5 17.1c-.5.1-1 0-1.3-.3L5.5 114.8c-.3-.3-.4-.6-.4-1L.6 17.1c0-.4.2-.8.5-1.1L14.6 4.3c.2-.2.5-.3.8-.3l61.4-4c.8 0 1.4.5 1.5 1.3l1.2 14.8c0 .5-.2.9-.5 1.2l-8 7.8L81.2 71l18 10c.1.1.2.3.2.5v17c0 .6-.4 1.2-1 1.3l-6.2 2.3V121c.5 1.1.1 1.7-.6 1.8M48.8 84.1c1.5.6 2.5 1.5 2.5 2.5 0 1.7-3 3.2-6.7 3.2s-6.7-1.4-6.7-3.2c0-1.1 1.1-2 2.8-2.6-1.2-.6-2.2-1.5-3-2.5-1-1.3-1.6-3-1.6-5 0-1.5.4-3 1.2-4.3l-10 1.8c-.7.1-1.5-.4-1.6-1.1l-7.3-36.7c-.1-.8.3-1.5 1.1-1.6l44.3-5.1c.7-.1 1.4.4 1.5 1.2l6.9 33.8c.2.7-.3 1.5-1.1 1.6l-21 3.8c.2.2.4.3.6.5 1.6 1.6 2.6 3.8 2.6 6 0 2-.6 3.6-1.5 4.9-.8 1.1-1.8 1.9-2.9 2.5zM41 68.8c1.1-.6 2.3-.9 3.7-.9h.9l23.6-4.2-6.4-31.3-41.5 4.8 6.8 33.9zm-1.7 44.8L91.5 100l5.7-2V84L39 97zM90 103.3l-51.5 13.4c-.1 0-.2.1-.3.1l-.7.2h-.1l-2.4.5v18.9l54.8-16v-17.1zm-57.7 33v-20c0-.6.4-1.2 1.1-1.4l3.1-.7-.3-17.7-15.7-12.1c-.3-.2-.4-.5-.5-.8L9.7 34.5c-.1-.4 0-.7.2-1l6.4-11.7L14.4 8 3.3 17.6l4.4 95.5zM18.9 20.4 76.6 15l-1-12.1L17 6.7zm55.4-2.5-55.5 5.2-6.2 11.3 10.1 48.1 15.2 11.8 56.8-12.8-15.5-8.4c-.3-.2-.6-.5-.7-.9L68.1 25c-.1-.5 0-1 .4-1.4zm-4.1 55c2.3 0 4.2.9 4.2 2s-1.9 2-4.2 2-4.2-.9-4.2-2 1.9-2 4.2-2m-10 2.1c2.3 0 4.2.9 4.2 2s-1.9 2-4.2 2-4.2-.9-4.2-2 1.9-2 4.2-2m20 2.7c2.3 0 4.2.9 4.2 2s-1.9 2-4.2 2-4.2-.9-4.2-2c.1-1.1 1.9-2 4.2-2m-9.4 2.4c2.3 0 4.2.9 4.2 2s-1.9 2-4.2 2-4.2-.9-4.2-2 1.9-2 4.2-2m-9.9 2.1c2.3 0 4.2.9 4.2 2s-1.9 2-4.2 2-4.2-.9-4.2-2 1.9-2 4.2-2M44.7 70.3c-3.5 0-6.2 3.3-6.2 6.3s1.9 4.9 4.3 5.8c.5 1.3.3 3.4-.2 4.6h4.1c-.4-1.2-.4-3.3 0-4.7 2.4-.9 4.2-2.8 4.2-5.8s-2.8-6.2-6.2-6.2m8.6 46-8.3 2.2V129l8.4-2.1zm-5.8 8.9v-3.9l.9-.3v3.7zm2.5-.7v-3.9l.9-.3v3.7z"/><path d="m91.6 122.8-58.5 17.1c-.5.1-1 0-1.3-.3L5.5 114.8c-.3-.3-.4-.6-.4-1L.6 17.1c0-.4.2-.8.5-1.1L14.6 4.3c.2-.2.5-.3.8-.3l61.4-4c.8 0 1.4.5 1.5 1.3l1.2 14.8c0 .5-.2.9-.5 1.2l-8 7.8L81.2 71l18 10c.1.1.2.3.2.5v17c0 .6-.4 1.2-1 1.3l-6.2 2.3V121c.5 1.1.1 1.7-.6 1.8M48.8 84.1c1.5.6 2.5 1.5 2.5 2.5 0 1.7-3 3.2-6.7 3.2s-6.7-1.4-6.7-3.2c0-1.1 1.1-2 2.8-2.6-1.2-.6-2.2-1.5-3-2.5-1-1.3-1.6-3-1.6-5 0-1.5.4-3 1.2-4.3l-10 1.8c-.7.1-1.5-.4-1.6-1.1l-7.3-36.7c-.1-.8.3-1.5 1.1-1.6l44.3-5.1c.7-.1 1.4.4 1.5 1.2l6.9 33.8c.2.7-.3 1.5-1.1 1.6l-21 3.8c.2.2.4.3.6.5 1.6 1.6 2.6 3.8 2.6 6 0 2-.6 3.6-1.5 4.9-.8 1.1-1.8 1.9-2.9 2.5zM41 68.8c1.1-.6 2.3-.9 3.7-.9h.9l23.6-4.2-6.4-31.3-41.5 4.8 6.8 33.9zm-1.7 44.8L91.5 100l5.7-2V84L39 97zM90 103.3l-51.5 13.4c-.1 0-.2.1-.3.1l-.7.2h-.1l-2.4.5v18.9l54.8-16v-17.1zm-57.7 33v-20c0-.6.4-1.2 1.1-1.4l3.1-.7-.3-17.7-15.7-12.1c-.3-.2-.4-.5-.5-.8L9.7 34.5c-.1-.4 0-.7.2-1l6.4-11.7L14.4 8 3.3 17.6l4.4 95.5zM18.9 20.4 76.6 15l-1-12.1L17 6.7zm55.4-2.5-55.5 5.2-6.2 11.3 10.1 48.1 15.2 11.8 56.8-12.8-15.5-8.4c-.3-.2-.6-.5-.7-.9L68.1 25c-.1-.5 0-1 .4-1.4zm-4.1 55c2.3 0 4.2.9 4.2 2s-1.9 2-4.2 2-4.2-.9-4.2-2 1.9-2 4.2-2m-10 2.1c2.3 0 4.2.9 4.2 2s-1.9 2-4.2 2-4.2-.9-4.2-2 1.9-2 4.2-2m20 2.7c2.3 0 4.2.9 4.2 2s-1.9 2-4.2 2-4.2-.9-4.2-2c.1-1.1 1.9-2 4.2-2m-9.4 2.4c2.3 0 4.2.9 4.2 2s-1.9 2-4.2 2-4.2-.9-4.2-2 1.9-2 4.2-2m-9.9 2.1c2.3 0 4.2.9 4.2 2s-1.9 2-4.2 2-4.2-.9-4.2-2 1.9-2 4.2-2M44.7 70.3c-3.5 0-6.2 3.3-6.2 6.3s1.9 4.9 4.3 5.8c.5 1.3.3 3.4-.2 4.6h4.1c-.4-1.2-.4-3.3 0-4.7 2.4-.9 4.2-2.8 4.2-5.8s-2.8-6.2-6.2-6.2m8.6 46-8.3 2.2V129l8.4-2.1zm-5.8 8.9v-3.9l.9-.3v3.7zm2.5-.7v-3.9l.9-.3v3.7z"/></svg>