<svg xmlns="http://www.w3.org/2000/svg" xml:space="preserve" image-rendering="optimizeQuality" shape-rendering="geometricPrecision" text-rendering="geometricPrecision" viewBox="0 0 100 140"><linearGradient id="a" x1="307.522" x2="268.642" y1="452.45" y2="158.548" gradientTransform="translate(3.43 .002)scale(.1714)" gradientUnits="userSpaceOnUse"><stop offset="0" style="stop-color:#fbf283"/><stop offset=".048" style="stop-color:#fbe502"/><stop offset=".892" style="stop-color:#fbe502"/><stop offset="1" style="stop-color:#d7a501"/></linearGradient><path fill="url(#a)" d="m74.2 18-55.4 5.2-6.2 11.3 10.1 48 15.2 11.8 56.7-12.8-15.5-8.4c-.3-.2-.6-.5-.7-.9L68 25.1c-.1-.5 0-1 .4-1.4z"/><path d="m91.5 122.7-58.4 17.1c-.5.1-1 0-1.3-.3L5.6 114.8c-.3-.3-.4-.6-.4-1L.6 17.3c0-.4.2-.8.5-1.1L14.6 4.5c.2-.2.5-.3.8-.3l61.3-4c.8 0 1.4.5 1.5 1.3l1.2 14.8c0 .5-.2.9-.5 1.2l-8 7.8 10.2 45.8 18 10c.1.1.2.3.2.5v17c0 .6-.4 1.2-1 1.3l-6.2 2.3v18.7c.5 1.1.1 1.7-.6 1.8M48.8 84.1c1.5.6 2.5 1.5 2.5 2.5 0 1.7-3 3.2-6.7 3.2s-6.7-1.4-6.7-3.2c0-1.1 1.1-2 2.8-2.6-1.2-.6-2.2-1.5-3-2.5-1-1.3-1.6-3-1.6-5 0-1.5.4-3 1.2-4.3l-10 1.8c-.7.1-1.5-.4-1.6-1.1l-7.3-36.6c-.1-.8.3-1.5 1.1-1.6l44.2-5.1c.7-.1 1.4.4 1.5 1.2l6.9 33.7c.2.7-.3 1.5-1.1 1.6l-21 3.8c.2.2.4.3.6.5 1.6 1.6 2.6 3.8 2.6 6 0 2-.6 3.6-1.5 4.9-.8 1.1-1.8 1.9-2.9 2.5zM41 68.8c1.1-.6 2.3-.9 3.7-.9h.9l23.6-4.2-6.4-31.2-41.4 4.8 6.8 33.8zm-1.7 44.7 52.1-13.6 5.7-2v-14L39 96.9zm50.6-10.3-51.4 13.4c-.1 0-.2.1-.3.1l-.7.2h-.1l-2.4.5v18.9l54.7-16v-17.1zm-57.6 33v-20c0-.6.4-1.2 1.1-1.4l3.1-.7-.3-17.7-15.7-12.1c-.3-.2-.4-.5-.5-.8l-10.3-49c-.1-.4 0-.7.2-1l6.4-11.7L14.4 8 3.3 17.6l4.4 95.3zM18.9 20.5l57.6-5.4-1-12.1L17 6.8zM74.2 18l-55.4 5.2-6.2 11.3 10.1 48 15.2 11.8 56.7-12.8-15.5-8.4c-.3-.2-.6-.5-.7-.9L68 25.1c-.1-.5 0-1 .4-1.4zm-4.1 54.9c2.3 0 4.2.9 4.2 2s-1.9 2-4.2 2-4.2-.9-4.2-2 1.9-2 4.2-2m-10 2.1c2.3 0 4.2.9 4.2 2s-1.9 2-4.2 2-4.2-.9-4.2-2 1.9-2 4.2-2m20 2.7c2.3 0 4.2.9 4.2 2s-1.9 2-4.2 2-4.2-.9-4.2-2c.1-1.1 1.9-2 4.2-2m-9.4 2.4c2.3 0 4.2.9 4.2 2s-1.9 2-4.2 2-4.2-.9-4.2-2 1.9-2 4.2-2m-9.9 2.1c2.3 0 4.2.9 4.2 2s-1.9 2-4.2 2-4.2-.9-4.2-2 1.9-2 4.2-2M44.7 70.3c3.4 0 6.2 3.2 6.2 6.2s-1.8 4.9-4.2 5.8c-.4 1.4-.4 3.5 0 4.7h-4.1c.5-1.2.7-3.3.2-4.6-2.4-.9-4.3-2.8-4.3-5.8s2.7-6.3 6.2-6.3"/><linearGradient id="b" x1="261.625" x2="227.33" y1="389.285" y2="204.947" gradientTransform="translate(3.43 .002)scale(.1714)" gradientUnits="userSpaceOnUse"><stop offset="0" style="stop-color:#121212"/><stop offset="1" style="stop-color:#292929"/></linearGradient><path fill="url(#b)" d="M41 68.8c1.1-.6 2.3-.9 3.7-.9h.9l23.6-4.2-6.4-31.2-41.4 4.8 6.8 33.8z"/><path fill="#007ed0" d="M39.3 113.5 91.4 100l5.7-2V83.9L39 97z"/><path fill="#054a68" d="m89.9 103.2-51.4 13.4c-.1 0-.2.1-.3.1l-.7.2h-.1l-2.4.5v18.9l54.7-16v-17.1z"/><linearGradient id="c" x1="76.46" x2="115.747" y1="122.463" y2="734.937" gradientTransform="translate(3.43 .002)scale(.1714)" gradientUnits="userSpaceOnUse"><stop offset=".414" style="stop-color:#fbe502"/><stop offset="1" style="stop-color:#d7a501"/></linearGradient><path fill="url(#c)" d="M32.3 136.2v-20c0-.6.4-1.2 1.1-1.4l3.1-.7-.3-17.7-15.7-12.1c-.3-.2-.4-.5-.5-.8l-10.3-49c-.1-.4 0-.7.2-1l6.4-11.7L14.4 8 3.3 17.6l4.4 95.3z"/><path fill="#007ed0" d="M18.9 20.5 76.5 15l-1-12L17 6.7z"/><path fill="#67665d" d="M44.7 70.3c3.4 0 6.2 3.2 6.2 6.2s-1.8 4.9-4.2 5.8c-.4 1.4-.4 3.5 0 4.7h-4.1c.5-1.2.7-3.3.2-4.6-2.4-.9-4.3-2.8-4.3-5.8s2.7-6.3 6.2-6.3"/><path d="m53.3 116.2-8.3 2.2v10.5l8.4-2.1zm-5.8 8.9v-3.9l.9-.3v3.7zm2.5-.7v-3.9l.9-.3v3.7z"/><path fill="#3b96db" d="m47.1 41.2-16 21.6 7.9-1.2 6.7-9.1 1.2 7.8 6.7-9.1 1.2 7.9 3.4-4.5L56 40.9l-7.4 10.2z"/></svg>