<svg xmlns="http://www.w3.org/2000/svg" xml:space="preserve" width="540.3" height="399.5" viewBox="0 0 540.3 399.5"><path d="M148.8 51.6H99.1V0h49.6v51.8zm-50.1 296v51.7H49.1v-51.6h49.8c-.1 0-.2-.1-.2-.1M393.8 51.8V.1C410 0 426 0 442.4 0v51.6h-48.8zm48.8 295.9h48.7v51.6h-48.6v-51.8c.1.1-.1.2-.1.2M98.8 347.6v-.1h-.1z"/><path d="M148.7 51.7h.1v-.1zM442.8 347.5h-.1v.1zM393.6 51.6v.1h.2zM489.4 51.8v98.4h-46.8v-49.7h-49V51.7h-50.1v48.6H198.7V51.7h-49.9v49.2H97.5v49.4H50.6V52H0v199.8h48.8v46.9h50v48.8H150v-48.6h242.8v48.6h49.9v-49.2H492v-46.9h48.4V51.8zM198.5 201.3H149V151h49.5zm194.9 0h-49.5v-50.2h49.5z"/></svg>