<svg xmlns="http://www.w3.org/2000/svg" xml:space="preserve" width="32" height="32" viewBox="0 0 32 32"><path d="M6.2 32H.9V14.2h5.3v-3.6h5.3V5.3h1.8V0h5.3v5.3h1.8v5.3h5.3v3.5H31v17.8h-5.3v-1.8h-7.1V32h-5.3v-1.8H6.2zM24 17.8v-5.3h-1.8V16h-1.8v-1.8h-1.8V7.1h-1.8V1.8H15v5.3h-1.8v7.1h-1.8V16H9.6v-3.5H8v8.9H6.2v1.8H4.4V16H2.7v14.2h1.8v-1.8h1.8v-1.8H8v-1.8h1.8v3.5h3.6v-1.8h1.8V30H17v-3.5h1.8v1.8h3.6v-3.5H24v1.8h1.8v1.8h1.8v1.7h1.8V16h-1.8v7h-1.8v-1.8H24v-3.4"/><path fill="#fefefe" d="M18.7 26.7h-1.8v3.5h-1.8v-3.5h-1.8v-3.5h-1.8V25H8v1.8H6.2v1.8H4.5v1.8H2.7V19.6h1.8v3.5h1.8v-1.8H8v-1.8h1.8v-1.8h1.8v-3.5h1.8V7.1h1.8V1.8H17v5.3h1.8v7.1h1.8v3.6h1.8v1.8H24v1.8h1.8v1.8h1.8v-3.5h1.8v10.6h-1.8v-1.7h-1.8v-1.8H24V25h-3.6v-1.8h-1.8v3.5zM15.1 16v1.8h-1.7v3.5h1.8v-1.7H17v1.8h1.8v-3.5H17V16z"/><path fill="#fd0000" d="M9.8 24.9h1.7v-1.8h1.8v5.3H9.8zM18.7 26.7v-3.6h1.7v1.8h1.8v3.5h-3.5zM8 16v-3.5h1.8V16zM22.2 16v-3.5H24V16zM4.4 19.6H2.7V16h1.7zM29.3 19.6h-1.7V16h1.7z"/><path fill="#fefefe" d="M8 16h1.8v1.8H8z"/><path fill="#0000fe" d="M9.8 17.8V16h1.7v1.8zM22.2 17.8h-1.7V16h1.7z"/><path fill="#fefefe" d="M22.2 17.8V16H24v1.8z"/><path fill="#0000fe" d="M8 17.8h1.8v1.8H8zM22.2 17.8H24v1.8h-1.8z"/><path fill="#fd0000" d="M15.1 16h1.8v1.8h1.8v3.5h-1.8v-1.7h-1.8v1.7h-1.7v-3.5h1.7z"/></svg>