<svg xmlns="http://www.w3.org/2000/svg" xml:space="preserve" width="114" height="114" viewBox="0 -29.5 114 114"><path fill="#9147ff" d="M114.2 84.5H0v-114h114.2z"/><g fill="#fff"><path d="M34.6-10.1h7.5v33.8h-7.5zM58.2 6.9v-.1c0-9.5 7.5-17.4 17.7-17.4 6.1 0 9.8 1.7 13.3 4.7L84.5-.2c-2.7-2.3-5-3.5-8.9-3.5C70.3-3.8 66 1 66 6.8c0 6.2 4.2 10.8 10.2 10.8 2.7 0 5.1-.7 6.9-2v-4.8h-7.4V4.2h14.6V19c-.9.8-2 1.6-3.1 2.3s-2.3 1.2-3.5 1.7-2.5.8-3.8 1c-1.3.3-2.6.4-4 .4-10.4-.1-17.7-7.4-17.7-17.5M22.9 31.8h13.2c10.6 0 17.8 7.4 17.8 16.8 0 9.6-7.2 17-17.8 17H22.9zm7.3 6.6v20.4H36c6.1 0 10.2-4.1 10.2-10.1v-.1c0-5.9-4.1-10.2-10.2-10.2zM62.5 31.8h15.6c3.8 0 6.9 1.1 8.8 3 .4.4.8.8 1.1 1.3s.5.9.7 1.4.3 1 .4 1.6c.1.5.1 1 .1 1.6v.1c0 3.7-2.1 5.8-4.4 7.2 3.8 1.6 6.2 3.8 6.2 8.4 0 6.2-5 9.3-12.6 9.3h-16V31.8zm19.4 9.9c0-2.1-1.8-3.4-5-3.4h-7.2v7.1h6.8c3.3 0 5.4-1 5.4-3.5zm-3.7 9.8h-8.5V59h8.8c3.3 0 5.2-1.1 5.2-3.7v-.1c.1-2.3-1.6-3.7-5.5-3.7"/></g></svg>